<svg xmlns="http://www.w3.org/2000/svg" version="1.1" xmlns:xlink="http://www.w3.org/1999/xlink" xmlns:svgjs="http://svgjs.dev/svgjs" class="sunburst"  viewBox="0 0 100 100"><g class="item"><line x1="50" y1="50" x2="50" y2="90" stroke-linecap="square" stroke-width="0.5" stroke="#ffffff" transform="matrix(1,0,0,1,0,0)"></line><line x1="50" y1="50" x2="50" y2="90" stroke-linecap="square" stroke-width="0.5" stroke="#ffffff" transform="matrix(0.9995730058628927,0.029219958080419807,-0.029219958080419807,0.9995730058628927,1.48234761087636,-1.4396481971656243)"></line><line x1="50" y1="50" x2="50" y2="90" stroke-linecap="square" stroke-width="0.5" stroke="#ffffff" transform="matrix(0.998292388099557,0.05841496265926589,-0.05841496265926589,0.998292388099557,3.0061287279854483,-2.8353675379411456)"></line><line x1="50" y1="50" x2="50" y2="90" stroke-linecap="square" stroke-width="0.5" stroke="#ffffff" transform="matrix(0.9961592403425467,0.08756008154496227,-0.08756008154496227,0.9961592403425467,4.570042060120784,-4.185966094375445)"></line><line x1="50" y1="50" x2="50" y2="90" stroke-linecap="square" stroke-width="0.5" stroke="#ffffff" transform="matrix(0.9931753842750332,0.11663042514772999,-0.11663042514772999,0.9931753842750332,6.172752043634837,-5.4902904711381595)"></line><line x1="50" y1="50" x2="50" y2="90" stroke-linecap="square" stroke-width="0.5" stroke="#ffffff" transform="matrix(0.9893433680751103,0.14560116773500487,-0.14560116773500487,0.9893433680751103,7.812889982994726,-6.747226790505756)"></line><line x1="50" y1="50" x2="50" y2="90" stroke-linecap="square" stroke-width="0.5" stroke="#ffffff" transform="matrix(0.9846664642396791,0.1744475686323221,-0.1744475686323221,0.9846664642396791,9.489055219632156,-7.955701643600058)"></line><line x1="50" y1="50" x2="50" y2="90" stroke-linecap="square" stroke-width="0.5" stroke="#ffffff" transform="matrix(0.979148666789775,0.2031449933515621,-0.2031449933515621,0.979148666789775,11.199816328089355,-9.114683007066859)"></line><line x1="50" y1="50" x2="50" y2="90" stroke-linecap="square" stroke-width="0.5" stroke="#ffffff" transform="matrix(0.9727946878597195,0.23166893462851446,-0.23166893462851446,0.9727946878597195,12.943712338439752,-10.223181124411695)"></line><line x1="50" y1="50" x2="50" y2="90" stroke-linecap="square" stroke-width="0.5" stroke="#ffffff" transform="matrix(0.9656099536730136,0.25999503335179425,-0.25999503335179425,0.9656099536730136,14.719253983939034,-11.280249351240393)"></line><line x1="50" y1="50" x2="50" y2="90" stroke-linecap="square" stroke-width="0.5" stroke="#ffffff" transform="matrix(0.957600599908406,0.2880990993652376,-0.2880990993652376,0.957600599908406,16.524924972841575,-12.284984963682177)"></line><line x1="50" y1="50" x2="50" y2="90" stroke-linecap="square" stroke-width="0.5" stroke="#ffffff" transform="matrix(0.9487734664600956,0.3159571321260112,-0.3159571321260112,0.9487734664600956,18.359183283295774,-13.236529929305348)"></line><line x1="50" y1="50" x2="50" y2="90" stroke-linecap="square" stroke-width="0.5" stroke="#ffffff" transform="matrix(0.9391360915965425,0.3435453412007947,-0.3435453412007947,0.9391360915965425,20.220462480212607,-14.13407163986686)"></line><line x1="50" y1="50" x2="50" y2="90" stroke-linecap="square" stroke-width="0.5" stroke="#ffffff" transform="matrix(0.9286967055228742,0.37084016658253166,-0.37084016658253166,0.9286967055228742,22.107173052982876,-14.97684360527029)"></line><line x1="50" y1="50" x2="50" y2="90" stroke-linecap="square" stroke-width="0.5" stroke="#ffffff" transform="matrix(0.9174642233523875,0.3978182988103995,-0.3978182988103995,0.9174642233523875,24.0177037729006,-15.764126108139351)"></line><line x1="50" y1="50" x2="50" y2="90" stroke-linecap="square" stroke-width="0.5" stroke="#ffffff" transform="matrix(0.9054482374931466,0.42445669887581505,-0.42445669887581505,0.9054482374931466,25.95042306913342,-16.49524681844808)"></line><line x1="50" y1="50" x2="50" y2="90" stroke-linecap="square" stroke-width="0.5" stroke="#ffffff" transform="matrix(0.8926590094561782,0.450732617897479,-0.450732617897479,0.8926590094561782,27.90368042206504,-17.169581367682852)"></line><line x1="50" y1="50" x2="50" y2="90" stroke-linecap="square" stroke-width="0.5" stroke="#ffffff" transform="matrix(0.8791074610922622,0.47662361654865226,-0.47662361654865226,0.8791074610922622,29.875807772819503,-17.786553882045723)"></line><line x1="50" y1="50" x2="50" y2="90" stroke-linecap="square" stroke-width="0.5" stroke="#ffffff" transform="matrix(0.8648051652647988,0.5021075842200793,-0.5021075842200793,0.8648051652647988,31.865120947764026,-18.3456374742439)"></line><line x1="50" y1="50" x2="50" y2="90" stroke-linecap="square" stroke-width="0.5" stroke="#ffffff" transform="matrix(0.8497643359667191,0.5271627579021881,-0.5271627579021881,0.8497643359667191,33.86992109677345,-18.846354693445363)"></line><line x1="50" y1="50" x2="50" y2="90" stroke-linecap="square" stroke-width="0.5" stroke="#ffffff" transform="matrix(0.8339978178898779,0.5517677407704459,-0.5517677407704459,0.8339978178898779,35.888496144028394,-19.28827793301619)"></line><line x1="50" y1="50" x2="50" y2="90" stroke-linecap="square" stroke-width="0.5" stroke="#ffffff" transform="matrix(0.8175190754558384,0.5759015204579958,-0.5759015204579958,0.8175190754558384,37.919122250107876,-19.67102979569171)"></line><line x1="50" y1="50" x2="50" y2="90" stroke-linecap="square" stroke-width="0.5" stroke="#ffffff" transform="matrix(0.8003421813174126,0.5995434869999722,-0.5995434869999722,0.8003421813174126,39.96006528412798,-19.994283415869248)"></line><line x1="50" y1="50" x2="50" y2="90" stroke-linecap="square" stroke-width="0.5" stroke="#ffffff" transform="matrix(0.7824818043407825,0.6226734504341689,-0.6226734504341689,0.7824818043407825,42.00958230466932,-20.257762738747573)"></line><line x1="50" y1="50" x2="50" y2="90" stroke-linecap="square" stroke-width="0.5" stroke="#ffffff" transform="matrix(0.7639531970784591,0.64527165804303,-0.64527165804303,0.7639531970784591,44.06592304822854,-20.461242756074455)"></line><line x1="50" y1="50" x2="50" y2="90" stroke-linecap="square" stroke-width="0.5" stroke="#ffffff" transform="matrix(0.7447721827437819,0.6673188112222395,-0.6673188112222395,0.7447721827437819,46.127331423922875,-20.60454969830107)"></line><line x1="50" y1="50" x2="50" y2="90" stroke-linecap="square" stroke-width="0.5" stroke="#ffffff" transform="matrix(0.7249551416980803,0.6887960819615021,-0.6887960819615021,0.7249551416980803,48.19204701317109,-20.687561182979124)"></line><line x1="50" y1="50" x2="50" y2="90" stroke-linecap="square" stroke-width="0.5" stroke="#ffffff" transform="matrix(0.7045189974620369,0.7096851289234448,-0.7096851289234448,0.7045189974620369,50.25830657307039,-20.71020631927408)"></line><line x1="50" y1="50" x2="50" y2="90" stroke-linecap="square" stroke-width="0.5" stroke="#ffffff" transform="matrix(0.6834812022631994,0.7299681131069025,-0.7299681131069025,0.6834812022631994,52.324345542185156,-20.67246576850509)"></line><line x1="50" y1="50" x2="50" y2="90" stroke-linecap="square" stroke-width="0.5" stroke="#ffffff" transform="matrix(0.6618597221319832,0.7496277130812161,-0.7496277130812161,0.6618597221319832,54.38839954746165,-20.57437176065997)"></line><line x1="50" y1="50" x2="50" y2="90" stroke-linecap="square" stroke-width="0.5" stroke="#ffffff" transform="matrix(0.6396730215588913,0.768647139778532,-0.768647139778532,0.6396730215588913,56.448705910982035,-20.41600806687117)"></line><line x1="50" y1="50" x2="50" y2="90" stroke-linecap="square" stroke-width="0.5" stroke="#ffffff" transform="matrix(0.6169400477260566,0.7870101508314686,-0.7870101508314686,0.6169400477260566,58.5035051552706,-20.19750992787627)"></line><line x1="50" y1="50" x2="50" y2="90" stroke-linecap="square" stroke-width="0.5" stroke="#ffffff" transform="matrix(0.5936802143265705,0.8047010644439072,-0.8047010644439072,0.5936802143265705,60.55104250586684,-19.91906393852389)"></line><line x1="50" y1="50" x2="50" y2="90" stroke-linecap="square" stroke-width="0.5" stroke="#ffffff" transform="matrix(0.5699133849854162,0.8217047727830628,-0.8217047727830628,0.5699133849854162,62.58956938988233,-19.58090788842395)"></line><line x1="50" y1="50" x2="50" y2="90" stroke-linecap="square" stroke-width="0.5" stroke="#ffffff" transform="matrix(0.5456598562961666,0.8380067548813952,-0.8380067548813952,0.5456598562961666,64.61734492926144,-19.183330558878083)"></line><line x1="50" y1="50" x2="50" y2="90" stroke-linecap="square" stroke-width="0.5" stroke="#ffffff" transform="matrix(0.5209403404879303,0.8535930890373464,-0.8535930890373464,0.5209403404879303,66.63263742747081,-18.72667147626383)"></line><line x1="50" y1="50" x2="50" y2="90" stroke-linecap="square" stroke-width="0.5" stroke="#ffffff" transform="matrix(0.4957759477373519,0.8684504647043092,-0.8684504647043092,0.4957759477373519,68.63372584834786,-18.21132062208305)"></line><line x1="50" y1="50" x2="50" y2="90" stroke-linecap="square" stroke-width="0.5" stroke="#ffffff" transform="matrix(0.4701881681407682,0.8825661938576781,-0.8825661938576781,0.4701881681407682,70.6189012858455,-17.63771809992231)"></line><line x1="50" y1="50" x2="50" y2="90" stroke-linecap="square" stroke-width="0.5" stroke="#ffffff" transform="matrix(0.444198853361918,0.8959282218302743,-0.8959282218302743,0.444198853361918,72.58646842341781,-17.006353759609624)"></line><line x1="50" y1="50" x2="50" y2="90" stroke-linecap="square" stroke-width="0.5" stroke="#ffffff" transform="matrix(0.41783019797087695,0.9085251376068897,-0.9085251376068897,0.41783019797087695,74.53474698180064,-16.317766778888327)"></line><line x1="50" y1="50" x2="50" y2="90" stroke-linecap="square" stroke-width="0.5" stroke="#ffffff" transform="matrix(0.391104720490156,0.9203461835691594,-0.9203461835691594,0.391104720490156,76.46207315395017,-15.57254520296577)"></line><line x1="50" y1="50" x2="50" y2="90" stroke-linecap="square" stroke-width="0.5" stroke="#ffffff" transform="matrix(0.36404524416414646,0.931381264682443,-0.931381264682443,0.36404524416414646,78.36680102591482,-14.77132544232947)"></line><line x1="50" y1="50" x2="50" y2="90" stroke-linecap="square" stroke-width="0.5" stroke="#ffffff" transform="matrix(0.33667487746833735,0.9416209571168646,-0.9416209571168646,0.33667487746833735,80.24730398242636,-13.914791729260102)"></line><line x1="50" y1="50" x2="50" y2="90" stroke-linecap="square" stroke-width="0.5" stroke="#ffffff" transform="matrix(0.30901699437494745,0.9510565162951535,-0.9510565162951535,0.30901699437494745,82.1019760960103,-13.003675533505046)"></line><line x1="50" y1="50" x2="50" y2="90" stroke-linecap="square" stroke-width="0.5" stroke="#ffffff" transform="matrix(0.28109521439182833,0.9596798843604111,-0.9596798843604111,0.28109521439182833,83.92923349842914,-12.03875493761197)"></line><line x1="50" y1="50" x2="50" y2="90" stroke-linecap="square" stroke-width="0.5" stroke="#ffffff" transform="matrix(0.2529333823916807,0.9674836970574253,-0.9674836970574253,0.2529333823916807,85.72751573328723,-11.0208539724553)"></line><line x1="50" y1="50" x2="50" y2="90" stroke-linecap="square" stroke-width="0.5" stroke="#ffffff" transform="matrix(0.22455554824881313,0.9744612900216586,-0.9744612900216586,0.22455554824881313,87.49528708864227,-9.95084191352359)"></line><line x1="50" y1="50" x2="50" y2="90" stroke-linecap="square" stroke-width="0.5" stroke="#ffffff" transform="matrix(0.19598594630083147,0.9806067044705372,-0.9806067044705372,0.19598594630083147,89.23103790848529,-8.829632538568433)"></line><line x1="50" y1="50" x2="50" y2="90" stroke-linecap="square" stroke-width="0.5" stroke="#ffffff" transform="matrix(0.16724897465279784,0.985914692292182,-0.985914692292182,0.16724897465279784,90.93328588196921,-7.658183347248993)"></line><line x1="50" y1="50" x2="50" y2="90" stroke-linecap="square" stroke-width="0.5" stroke="#ffffff" transform="matrix(0.1383691743415365,0.9903807205272331,-0.9903807205272331,0.1383691743415365,92.60057730928483,-6.437494743438478)"></line><line x1="50" y1="50" x2="50" y2="90" stroke-linecap="square" stroke-width="0.5" stroke="#ffffff" transform="matrix(0.1093712083778743,0.9940009752399459,-0.9940009752399459,0.1093712083778743,94.23148834310358,-5.168609180891011)"></line><line x1="50" y1="50" x2="50" y2="90" stroke-linecap="square" stroke-width="0.5" stroke="#ffffff" transform="matrix(0.08027984068472116,0.9967723647752459,-0.9967723647752459,0.08027984068472116,95.82462620452624,-3.852610272998348)"></line><line x1="50" y1="50" x2="50" y2="90" stroke-linecap="square" stroke-width="0.5" stroke="#ffffff" transform="matrix(0.05111991494896744,0.9986925223989666,-0.9986925223989666,0.05111991494896744,97.37863037249996,-2.4906218673966976)"></line><line x1="50" y1="50" x2="50" y2="90" stroke-linecap="square" stroke-width="0.5" stroke="#ffffff" transform="matrix(0.021916333405268017,0.9997598083190128,-0.9997598083190128,0.021916333405268017,98.89217374568724,-1.083807086214044)"></line><line x1="50" y1="50" x2="50" y2="90" stroke-linecap="square" stroke-width="0.5" stroke="#ffffff" transform="matrix(-0.007305964430172842,0.9999733110857234,-0.9999733110857234,-0.007305964430172842,100.36396377579482,0.36663266722247556)"></line><line x1="50" y1="50" x2="50" y2="90" stroke-linecap="square" stroke-width="0.5" stroke="#ffffff" transform="matrix(-0.03652202305765895,0.9993328483702394,-0.9993328483702394,-0.03652202305765895,101.79274357139491,1.8594587343709819)"></line><line x1="50" y1="50" x2="50" y2="90" stroke-linecap="square" stroke-width="0.5" stroke="#ffffff" transform="matrix(-0.065706892305703,0.9978389671202096,-0.9978389671202096,-0.065706892305703,103.17729297129563,3.3933962592746667)"></line><line x1="50" y1="50" x2="50" y2="90" stroke-linecap="square" stroke-width="0.5" stroke="#ffffff" transform="matrix(-0.09483564863818245,0.9954929430927048,-0.9954929430927048,-0.09483564863818245,104.51642958654436,4.967135277273883)"></line><line x1="50" y1="50" x2="50" y2="90" stroke-linecap="square" stroke-width="0.5" stroke="#ffffff" transform="matrix(-0.12388341643874802,0.9922967797647354,-0.9922967797647354,-0.12388341643874802,105.80900981017417,6.5793318337006355)"></line><line x1="50" y1="50" x2="50" y2="90" stroke-linecap="square" stroke-width="0.5" stroke="#ffffff" transform="matrix(-0.15282538925430503,0.988253206622306,-0.988253206622306,-0.15282538925430503,107.05392979383055,8.228609131599953)"></line><line x1="50" y1="50" x2="50" y2="90" stroke-linecap="square" stroke-width="0.5" stroke="#ffffff" transform="matrix(-0.18163685097943635,0.9833656768294662,-0.9833656768294662,-0.18163685097943635,108.25012639044513,9.91355870749851)"></line><line x1="50" y1="50" x2="50" y2="90" stroke-linecap="square" stroke-width="0.5" stroke="#ffffff" transform="matrix(-0.2102931969636664,0.9776383642793487,-0.9776383642793487,-0.2102931969636664,109.39657806215075,11.632741634215883)"></line><line x1="50" y1="50" x2="50" y2="90" stroke-linecap="square" stroke-width="0.5" stroke="#ffffff" transform="matrix(-0.23876995502354198,0.9710761600297145,-0.9710761600297145,-0.23876995502354198,110.49230575266283,13.384689749691375)"></line><line x1="50" y1="50" x2="50" y2="90" stroke-linecap="square" stroke-width="0.5" stroke="#ffffff" transform="matrix(-0.26704280634159266,0.9636846681260456,-0.9636846681260456,-0.26704280634159266,111.53637372338191,15.167906910777361)"></line><line x1="50" y1="50" x2="50" y2="90" stroke-linecap="square" stroke-width="0.5" stroke="#ffffff" transform="matrix(-0.29508760623431474,0.9554702008157565,-0.9554702008157565,-0.29508760623431474,112.52789035250356,16.98087027092791)"></line><line x1="50" y1="50" x2="50" y2="90" stroke-linecap="square" stroke-width="0.5" stroke="#ffffff" transform="matrix(-0.3228804047714462,0.9464397731576094,-0.9464397731576094,-0.3228804047714462,113.46600889645278,18.822031580691842)"></line><line x1="50" y1="50" x2="50" y2="90" stroke-linecap="square" stroke-width="0.5" stroke="#ffffff" transform="matrix(-0.35039746722892956,0.9366010970309352,-0.9366010970309352,-0.35039746722892956,114.34992821299323,20.689818509899716)"></line><line x1="50" y1="50" x2="50" y2="90" stroke-linecap="square" stroke-width="0.5" stroke="#ffffff" transform="matrix(-0.37761529435808455,0.9259625745497801,-0.9259625745497801,-0.37761529435808455,115.17889344539324,22.58263599041522)"></line><line x1="50" y1="50" x2="50" y2="90" stroke-linecap="square" stroke-width="0.5" stroke="#ffffff" transform="matrix(-0.4045106424536936,0.914533290887598,-0.914533290887598,-0.4045106424536936,115.95219666706458,24.49886757830478)"></line><line x1="50" y1="50" x2="50" y2="90" stroke-linecap="square" stroke-width="0.5" stroke="#ffffff" transform="matrix(-0.4310605432038524,0.902323006518619,-0.902323006518619,-0.4310605432038524,116.66917748612357,26.436876834261675)"></line><line x1="50" y1="50" x2="50" y2="90" stroke-linecap="square" stroke-width="0.5" stroke="#ffffff" transform="matrix(-0.4572423233046385,0.889342148882519,-0.889342148882519,-0.4572423233046385,117.32922360935788,28.395008721105974)"></line><line x1="50" y1="50" x2="50" y2="90" stroke-linecap="square" stroke-width="0.5" stroke="#ffffff" transform="matrix(-0.4830336238228478,0.8756018034795083,-0.8756018034795083,-0.4830336238228478,117.93177136511781,30.371591017166974)"></line><line x1="50" y1="50" x2="50" y2="90" stroke-linecap="square" stroke-width="0.5" stroke="#ffffff" transform="matrix(-0.508412419290261,0.8611137044034451,-0.8611137044034451,-0.508412419290261,118.47630618468531,32.3649357443408)"></line><line x1="50" y1="50" x2="50" y2="90" stroke-linecap="square" stroke-width="0.5" stroke="#ffffff" transform="matrix(-0.5333570365131353,0.8458902243210558,-0.8458902243210558,-0.5333570365131353,118.96236304170955,34.37334060960397)"></line><line x1="50" y1="50" x2="50" y2="90" stroke-linecap="square" stroke-width="0.5" stroke="#ffffff" transform="matrix(-0.5578461730808574,0.8299443639058236,-0.8299443639058236,-0.5578461730808574,119.38952684933405,36.39509045875168)"></line><line x1="50" y1="50" x2="50" y2="90" stroke-linecap="square" stroke-width="0.5" stroke="#ffffff" transform="matrix(-0.581858915557953,0.8132897407355653,-0.8132897407355653,-0.581858915557953,119.75743281467591,38.428458741119385)"></line><line x1="50" y1="50" x2="50" y2="90" stroke-linecap="square" stroke-width="0.5" stroke="#ffffff" transform="matrix(-0.6053747573439145,0.7959405776631799,-0.7959405776631799,-0.6053747573439145,120.06576675035473,40.47170898403674)"></line><line x1="50" y1="50" x2="50" y2="90" stroke-linecap="square" stroke-width="0.5" stroke="#ffffff" transform="matrix(-0.6283736161855996,0.7779116906704981,-0.7779116906704981,-0.6283736161855996,120.31426534280489,42.523096275755066)"></line><line x1="50" y1="50" x2="50" y2="90" stroke-linecap="square" stroke-width="0.5" stroke="#ffffff" transform="matrix(-0.6508358513272355,0.7592184762156099,-0.7592184762156099,-0.6508358513272355,120.50271637714226,44.580868755581285)"></line><line x1="50" y1="50" x2="50" y2="90" stroke-linecap="square" stroke-width="0.5" stroke="#ffffff" transform="matrix(-0.6727422802834,0.739876898084466,-0.739876898084466,-0.6727422802834,120.6309589183933,46.6432691099467)"></line><line x1="50" y1="50" x2="50" y2="90" stroke-linecap="square" stroke-width="0.5" stroke="#ffffff" transform="matrix(-0.694074195220634,0.7199034737579958,-0.7199034737579958,-0.694074195220634,120.69888344893148,48.70853607313191)"></line><line x1="50" y1="50" x2="50" y2="90" stroke-linecap="square" stroke-width="0.5" stroke="#ffffff" transform="matrix(-0.7148133789337145,0.6993152603063699,-0.6993152603063699,-0.7148133789337145,120.70643196200422,50.774905931367236)"></line><line x1="50" y1="50" x2="50" y2="90" stroke-linecap="square" stroke-width="0.5" stroke="#ffffff" transform="matrix(-0.7349421204029339,0.678129839822463,-0.678129839822463,-0.7349421204029339,120.65359801126985,52.84061402902355)"></line><line x1="50" y1="50" x2="50" y2="90" stroke-linecap="square" stroke-width="0.5" stroke="#ffffff" transform="matrix(-0.7544432299191028,0.6563653044069526,-0.6563653044069526,-0.7544432299191028,120.54042671630278,54.90389627560751)"></line><line x1="50" y1="50" x2="50" y2="90" stroke-linecap="square" stroke-width="0.5" stroke="#ffffff" transform="matrix(-0.77330005376336,0.6340402407178779,-0.6340402407178779,-0.77330005376336,120.3670147240619,56.96299065227411)"></line><line x1="50" y1="50" x2="50" y2="90" stroke-linecap="square" stroke-width="0.5" stroke="#ffffff" transform="matrix(-0.791496488429254,0.6111737140978494,-0.6111737140978494,-0.791496488429254,120.13351012635516,59.01613871657023)"></line><line x1="50" y1="50" x2="50" y2="90" stroke-linecap="square" stroke-width="0.5" stroke="#ffffff" transform="matrix(-0.8090169943749473,0.5877852522924732,-0.5877852522924732,-0.8090169943749473,119.84011233337102,61.0615871041237)"></line><line x1="50" y1="50" x2="50" y2="90" stroke-linecap="square" stroke-width="0.5" stroke="#ffffff" transform="matrix(-0.8258466092938042,0.563894828773883,-0.563894828773883,-0.8258466092938042,119.48707190338436,63.09758902599606)"></line><line x1="50" y1="50" x2="50" y2="90" stroke-linecap="square" stroke-width="0.5" stroke="#ffffff" transform="matrix(-0.8419709608920242,0.5395228456836295,-0.5395228456836295,-0.8419709608920242,119.07469032878268,65.12240576041974)"></line><line x1="50" y1="50" x2="50" y2="90" stroke-linecap="square" stroke-width="0.5" stroke="#ffffff" transform="matrix(-0.8573762791624129,0.5146901164094918,-0.5146901164094918,-0.8573762791624129,118.60331977859524,67.13430813764606)"></line><line x1="50" y1="50" x2="50" y2="90" stroke-linecap="square" stroke-width="0.5" stroke="#ffffff" transform="matrix(-0.8720494081438077,0.48941784781108544,-0.48941784781108544,-0.8720494081438077,118.07336279774466,69.13157801663611)"></line><line x1="50" y1="50" x2="50" y2="90" stroke-linecap="square" stroke-width="0.5" stroke="#ffffff" transform="matrix(-0.8859778171561113,0.4637276221094578,-0.4637276221094578,-0.8859778171561113,117.48527196327845,71.11250975233267)"></line><line x1="50" y1="50" x2="50" y2="90" stroke-linecap="square" stroke-width="0.5" stroke="#ffffff" transform="matrix(-0.8991496115013499,0.4376413784561185,-0.4376413784561185,-0.8991496115013499,116.83954949787342,73.07541165226156)"></line><line x1="50" y1="50" x2="50" y2="90" stroke-linecap="square" stroke-width="0.5" stroke="#ffffff" transform="matrix(-0.9115535426216013,0.41118139419726735,-0.41118139419726735,-0.9115535426216013,116.13674684094343,75.0186074212167)"></line><line x1="50" y1="50" x2="50" y2="90" stroke-linecap="square" stroke-width="0.5" stroke="#ffffff" transform="matrix(-0.9231790177051352,0.3843702658491961,-0.3843702658491961,-0.9231790177051352,115.37746417771656,76.94043759279695)"></line><line x1="50" y1="50" x2="50" y2="90" stroke-linecap="square" stroke-width="0.5" stroke="#ffffff" transform="matrix(-0.9340161087325481,0.35723088980113243,-0.35723088980113243,-0.9340161087325481,114.56234992668402,78.83926094657079)"></line><line x1="50" y1="50" x2="50" y2="90" stroke-linecap="square" stroke-width="0.5" stroke="#ffffff" transform="matrix(-0.9440555609551756,0.3297864427619922,-0.3297864427619922,-0.9440555609551756,113.6921001858584,80.71345590965917)"></line><line x1="50" y1="50" x2="50" y2="90" stroke-linecap="square" stroke-width="0.5" stroke="#ffffff" transform="matrix(-0.9532888007985405,0.3020603619677375,-0.3020603619677375,-0.9532888007985405,112.7674581383139,82.56142194154015)"></line><line x1="50" y1="50" x2="50" y2="90" stroke-linecap="square" stroke-width="0.5" stroke="#ffffff" transform="matrix(-0.9617079431840829,0.2740763251662585,-0.2740763251662585,-0.9617079431840829,111.78921341751708,84.38158090089122)"></line><line x1="50" y1="50" x2="50" y2="90" stroke-linecap="square" stroke-width="0.5" stroke="#ffffff" transform="matrix(-0.9693057982629275,0.24585823039684648,-0.24585823039684648,-0.9693057982629275,110.7582014329887,86.17237839330406)"></line><line x1="50" y1="50" x2="50" y2="90" stroke-linecap="square" stroke-width="0.5" stroke="#ffffff" transform="matrix(-0.9760758775559272,0.2174301755815568,-0.2174301755815568,-0.9760758775559272,109.67530265687421,87.93228509871852)"></line><line x1="50" y1="50" x2="50" y2="90" stroke-linecap="square" stroke-width="0.5" stroke="#ffffff" transform="matrix(-0.9820123994947503,0.18881643794586048,-0.18881643794586048,-0.9820123994947503,108.54144187203053,89.65979807744449)"></line><line x1="50" y1="50" x2="50" y2="90" stroke-linecap="square" stroke-width="0.5" stroke="#ffffff" transform="matrix(-0.9871102943592716,0.160041453286179,-0.160041453286179,-0.9871102943592716,107.35758738227253,91.35344205365463)"></line><line x1="50" y1="50" x2="50" y2="90" stroke-linecap="square" stroke-width="0.5" stroke="#ffffff" transform="matrix(-0.9913652086070536,0.1311297951020024,-0.1311297951020024,-0.9913652086070536,106.1247501854528,93.01177067525256)"></line><line x1="50" y1="50" x2="50" y2="90" stroke-linecap="square" stroke-width="0.5" stroke="#ffffff" transform="matrix(-0.9947735085912207,0.10210615361040987,-0.10210615361040987,-0.9947735085912207,104.84398311008152,94.63336774904054)"></line><line x1="50" y1="50" x2="50" y2="90" stroke-linecap="square" stroke-width="0.5" stroke="#ffffff" transform="matrix(-0.9973322836635516,0.07299531466090756,-0.07299531466090756,-0.9973322836635516,103.51637991622296,96.2168484501322)"></line><line x1="50" y1="50" x2="50" y2="90" stroke-linecap="square" stroke-width="0.5" stroke="#ffffff" transform="matrix(-0.9990393486601382,0.04382213856861266,-0.04382213856861266,-0.9990393486601382,102.14307436143756,97.76086050457627)"></line><line x1="50" y1="50" x2="50" y2="90" stroke-linecap="square" stroke-width="0.5" stroke="#ffffff" transform="matrix(-0.9998932457674901,0.01461153888382916,-0.01461153888382916,-0.9998932457674901,100.72523923256595,99.26408534418304)"></line><line x1="50" y1="50" x2="50" y2="90" stroke-linecap="square" stroke-width="0.5" stroke="#ffffff" transform="matrix(-0.9998932457674901,-0.014611538883828915,0.014611538883828915,-0.9998932457674901,99.26408534418306,100.72523923256594)"></line><line x1="50" y1="50" x2="50" y2="90" stroke-linecap="square" stroke-width="0.5" stroke="#ffffff" transform="matrix(-0.9990393486601383,-0.04382213856861241,0.04382213856861241,-0.9990393486601383,97.7608605045763,102.14307436143753)"></line><line x1="50" y1="50" x2="50" y2="90" stroke-linecap="square" stroke-width="0.5" stroke="#ffffff" transform="matrix(-0.9973322836635516,-0.07299531466090775,0.07299531466090775,-0.9973322836635516,96.2168484501322,103.51637991622297)"></line><line x1="50" y1="50" x2="50" y2="90" stroke-linecap="square" stroke-width="0.5" stroke="#ffffff" transform="matrix(-0.9947735085912207,-0.10210615361040919,0.10210615361040919,-0.9947735085912207,94.63336774904057,104.8439831100815)"></line><line x1="50" y1="50" x2="50" y2="90" stroke-linecap="square" stroke-width="0.5" stroke="#ffffff" transform="matrix(-0.9913652086070535,-0.13112979510200304,0.13112979510200304,-0.9913652086070535,93.01177067525252,106.12475018545283)"></line><line x1="50" y1="50" x2="50" y2="90" stroke-linecap="square" stroke-width="0.5" stroke="#ffffff" transform="matrix(-0.9871102943592717,-0.16004145328617875,0.16004145328617875,-0.9871102943592717,91.35344205365465,107.35758738227253)"></line><line x1="50" y1="50" x2="50" y2="90" stroke-linecap="square" stroke-width="0.5" stroke="#ffffff" transform="matrix(-0.9820123994947504,-0.1888164379458598,0.1888164379458598,-0.9820123994947504,89.65979807744452,108.5414418720305)"></line><line x1="50" y1="50" x2="50" y2="90" stroke-linecap="square" stroke-width="0.5" stroke="#ffffff" transform="matrix(-0.9760758775559271,-0.21743017558155744,0.21743017558155744,-0.9760758775559271,87.93228509871848,109.67530265687422)"></line><line x1="50" y1="50" x2="50" y2="90" stroke-linecap="square" stroke-width="0.5" stroke="#ffffff" transform="matrix(-0.9693057982629275,-0.24585823039684668,0.24585823039684668,-0.9693057982629275,86.17237839330404,110.75820143298871)"></line><line x1="50" y1="50" x2="50" y2="90" stroke-linecap="square" stroke-width="0.5" stroke="#ffffff" transform="matrix(-0.961707943184083,-0.2740763251662583,0.2740763251662583,-0.961707943184083,84.38158090089124,111.78921341751706)"></line><line x1="50" y1="50" x2="50" y2="90" stroke-linecap="square" stroke-width="0.5" stroke="#ffffff" transform="matrix(-0.9532888007985403,-0.3020603619677381,0.3020603619677381,-0.9532888007985403,82.56142194154012,112.76745813831391)"></line><line x1="50" y1="50" x2="50" y2="90" stroke-linecap="square" stroke-width="0.5" stroke="#ffffff" transform="matrix(-0.9440555609551756,-0.329786442761992,0.329786442761992,-0.9440555609551756,80.71345590965919,113.69210018585838)"></line><line x1="50" y1="50" x2="50" y2="90" stroke-linecap="square" stroke-width="0.5" stroke="#ffffff" transform="matrix(-0.934016108732548,-0.35723088980113266,0.35723088980113266,-0.934016108732548,78.83926094657077,114.56234992668404)"></line><line x1="50" y1="50" x2="50" y2="90" stroke-linecap="square" stroke-width="0.5" stroke="#ffffff" transform="matrix(-0.9231790177051351,-0.38437026584919626,0.38437026584919626,-0.9231790177051351,76.94043759279694,115.37746417771658)"></line><line x1="50" y1="50" x2="50" y2="90" stroke-linecap="square" stroke-width="0.5" stroke="#ffffff" transform="matrix(-0.9115535426216012,-0.4111813941972675,0.4111813941972675,-0.9115535426216012,75.01860742121669,116.13674684094343)"></line><line x1="50" y1="50" x2="50" y2="90" stroke-linecap="square" stroke-width="0.5" stroke="#ffffff" transform="matrix(-0.8991496115013499,-0.43764137845611867,0.43764137845611867,-0.8991496115013499,73.07541165226155,116.83954949787343)"></line><line x1="50" y1="50" x2="50" y2="90" stroke-linecap="square" stroke-width="0.5" stroke="#ffffff" transform="matrix(-0.8859778171561115,-0.46372762210945756,0.46372762210945756,-0.8859778171561115,71.1125097523327,117.48527196327845)"></line><line x1="50" y1="50" x2="50" y2="90" stroke-linecap="square" stroke-width="0.5" stroke="#ffffff" transform="matrix(-0.8720494081438076,-0.4894178478110856,0.4894178478110856,-0.8720494081438076,69.1315780166361,118.07336279774466)"></line><line x1="50" y1="50" x2="50" y2="90" stroke-linecap="square" stroke-width="0.5" stroke="#ffffff" transform="matrix(-0.8573762791624132,-0.5146901164094912,0.5146901164094912,-0.8573762791624132,67.1343081376461,118.60331977859522)"></line><line x1="50" y1="50" x2="50" y2="90" stroke-linecap="square" stroke-width="0.5" stroke="#ffffff" transform="matrix(-0.8419709608920243,-0.5395228456836293,0.5395228456836293,-0.8419709608920243,65.12240576041975,119.07469032878268)"></line><line x1="50" y1="50" x2="50" y2="90" stroke-linecap="square" stroke-width="0.5" stroke="#ffffff" transform="matrix(-0.825846609293804,-0.5638948287738831,0.5638948287738831,-0.825846609293804,63.097589025996044,119.48707190338436)"></line><line x1="50" y1="50" x2="50" y2="90" stroke-linecap="square" stroke-width="0.5" stroke="#ffffff" transform="matrix(-0.8090169943749476,-0.587785252292473,0.587785252292473,-0.8090169943749476,61.06158710412373,119.84011233337102)"></line><line x1="50" y1="50" x2="50" y2="90" stroke-linecap="square" stroke-width="0.5" stroke="#ffffff" transform="matrix(-0.7914964884292541,-0.6111737140978493,0.6111737140978493,-0.7914964884292541,59.01613871657025,120.13351012635516)"></line><line x1="50" y1="50" x2="50" y2="90" stroke-linecap="square" stroke-width="0.5" stroke="#ffffff" transform="matrix(-0.7733000537633602,-0.6340402407178777,0.6340402407178777,-0.7733000537633602,56.96299065227413,120.36701472406189)"></line><line x1="50" y1="50" x2="50" y2="90" stroke-linecap="square" stroke-width="0.5" stroke="#ffffff" transform="matrix(-0.7544432299191025,-0.6563653044069532,0.6563653044069532,-0.7544432299191025,54.903896275607465,120.54042671630279)"></line><line x1="50" y1="50" x2="50" y2="90" stroke-linecap="square" stroke-width="0.5" stroke="#ffffff" transform="matrix(-0.7349421204029342,-0.6781298398224628,0.6781298398224628,-0.7349421204029342,52.84061402902357,120.65359801126985)"></line><line x1="50" y1="50" x2="50" y2="90" stroke-linecap="square" stroke-width="0.5" stroke="#ffffff" transform="matrix(-0.7148133789337143,-0.69931526030637,0.69931526030637,-0.7148133789337143,50.774905931367215,120.70643196200422)"></line><line x1="50" y1="50" x2="50" y2="90" stroke-linecap="square" stroke-width="0.5" stroke="#ffffff" transform="matrix(-0.6940741952206337,-0.7199034737579959,0.7199034737579959,-0.6940741952206337,48.708536073131896,120.69888344893148)"></line><line x1="50" y1="50" x2="50" y2="90" stroke-linecap="square" stroke-width="0.5" stroke="#ffffff" transform="matrix(-0.6727422802834001,-0.7398768980844659,0.7398768980844659,-0.6727422802834001,46.64326910994671,120.6309589183933)"></line><line x1="50" y1="50" x2="50" y2="90" stroke-linecap="square" stroke-width="0.5" stroke="#ffffff" transform="matrix(-0.6508358513272354,-0.75921847621561,0.75921847621561,-0.6508358513272354,44.58086875558127,120.50271637714226)"></line><line x1="50" y1="50" x2="50" y2="90" stroke-linecap="square" stroke-width="0.5" stroke="#ffffff" transform="matrix(-0.6283736161855994,-0.7779116906704983,0.7779116906704983,-0.6283736161855994,42.52309627575506,120.31426534280487)"></line><line x1="50" y1="50" x2="50" y2="90" stroke-linecap="square" stroke-width="0.5" stroke="#ffffff" transform="matrix(-0.6053747573439151,-0.7959405776631795,0.7959405776631795,-0.6053747573439151,40.47170898403678,120.06576675035473)"></line><line x1="50" y1="50" x2="50" y2="90" stroke-linecap="square" stroke-width="0.5" stroke="#ffffff" transform="matrix(-0.5818589155579529,-0.8132897407355654,0.8132897407355654,-0.5818589155579529,38.42845874111937,119.75743281467591)"></line><line x1="50" y1="50" x2="50" y2="90" stroke-linecap="square" stroke-width="0.5" stroke="#ffffff" transform="matrix(-0.5578461730808576,-0.8299443639058234,0.8299443639058234,-0.5578461730808576,36.39509045875171,119.38952684933405)"></line><line x1="50" y1="50" x2="50" y2="90" stroke-linecap="square" stroke-width="0.5" stroke="#ffffff" transform="matrix(-0.533357036513135,-0.8458902243210559,0.8458902243210559,-0.533357036513135,34.37334060960396,118.96236304170955)"></line><line x1="50" y1="50" x2="50" y2="90" stroke-linecap="square" stroke-width="0.5" stroke="#ffffff" transform="matrix(-0.5084124192902605,-0.8611137044034455,0.8611137044034455,-0.5084124192902605,32.364935744340755,118.4763061846853)"></line><line x1="50" y1="50" x2="50" y2="90" stroke-linecap="square" stroke-width="0.5" stroke="#ffffff" transform="matrix(-0.48303362382284765,-0.8756018034795084,0.8756018034795084,-0.48303362382284765,30.37159101716696,117.93177136511781)"></line><line x1="50" y1="50" x2="50" y2="90" stroke-linecap="square" stroke-width="0.5" stroke="#ffffff" transform="matrix(-0.4572423233046387,-0.8893421488825188,0.8893421488825188,-0.4572423233046387,28.39500872110599,117.32922360935788)"></line><line x1="50" y1="50" x2="50" y2="90" stroke-linecap="square" stroke-width="0.5" stroke="#ffffff" transform="matrix(-0.43106054320385223,-0.9023230065186191,0.9023230065186191,-0.43106054320385223,26.43687683426166,116.66917748612357)"></line><line x1="50" y1="50" x2="50" y2="90" stroke-linecap="square" stroke-width="0.5" stroke="#ffffff" transform="matrix(-0.404510642453693,-0.9145332908875984,0.9145332908875984,-0.404510642453693,24.49886757830473,115.95219666706457)"></line><line x1="50" y1="50" x2="50" y2="90" stroke-linecap="square" stroke-width="0.5" stroke="#ffffff" transform="matrix(-0.3776152943580841,-0.9259625745497804,0.9259625745497804,-0.3776152943580841,22.58263599041519,115.17889344539321)"></line><line x1="50" y1="50" x2="50" y2="90" stroke-linecap="square" stroke-width="0.5" stroke="#ffffff" transform="matrix(-0.3503974672289294,-0.9366010970309352,0.9366010970309352,-0.3503974672289294,20.68981850989971,114.34992821299323)"></line><line x1="50" y1="50" x2="50" y2="90" stroke-linecap="square" stroke-width="0.5" stroke="#ffffff" transform="matrix(-0.32288040477144575,-0.9464397731576095,0.9464397731576095,-0.32288040477144575,18.822031580691814,113.46600889645276)"></line><line x1="50" y1="50" x2="50" y2="90" stroke-linecap="square" stroke-width="0.5" stroke="#ffffff" transform="matrix(-0.2950876062343145,-0.9554702008157565,0.9554702008157565,-0.2950876062343145,16.980870270927902,112.52789035250356)"></line><line x1="50" y1="50" x2="50" y2="90" stroke-linecap="square" stroke-width="0.5" stroke="#ffffff" transform="matrix(-0.2670428063415931,-0.9636846681260455,0.9636846681260455,-0.2670428063415931,15.167906910777376,111.53637372338193)"></line><line x1="50" y1="50" x2="50" y2="90" stroke-linecap="square" stroke-width="0.5" stroke="#ffffff" transform="matrix(-0.23876995502354179,-0.9710761600297145,0.9710761600297145,-0.23876995502354179,13.384689749691361,110.49230575266282)"></line><line x1="50" y1="50" x2="50" y2="90" stroke-linecap="square" stroke-width="0.5" stroke="#ffffff" transform="matrix(-0.21029319696366558,-0.9776383642793489,0.9776383642793489,-0.21029319696366558,11.632741634215833,109.39657806215072)"></line><line x1="50" y1="50" x2="50" y2="90" stroke-linecap="square" stroke-width="0.5" stroke="#ffffff" transform="matrix(-0.18163685097943616,-0.9833656768294662,0.9833656768294662,-0.18163685097943616,9.913558707498495,108.25012639044512)"></line><line x1="50" y1="50" x2="50" y2="90" stroke-linecap="square" stroke-width="0.5" stroke="#ffffff" transform="matrix(-0.15282538925430506,-0.988253206622306,0.988253206622306,-0.15282538925430506,8.228609131599953,107.05392979383055)"></line><line x1="50" y1="50" x2="50" y2="90" stroke-linecap="square" stroke-width="0.5" stroke="#ffffff" transform="matrix(-0.1238834164387476,-0.9922967797647354,0.9922967797647354,-0.1238834164387476,6.579331833700607,105.80900981017415)"></line><line x1="50" y1="50" x2="50" y2="90" stroke-linecap="square" stroke-width="0.5" stroke="#ffffff" transform="matrix(-0.0948356486381827,-0.9954929430927048,0.9954929430927048,-0.0948356486381827,4.967135277273897,104.51642958654438)"></line><line x1="50" y1="50" x2="50" y2="90" stroke-linecap="square" stroke-width="0.5" stroke="#ffffff" transform="matrix(-0.06570689230570324,-0.9978389671202096,0.9978389671202096,-0.06570689230570324,3.393396259274681,103.17729297129564)"></line><line x1="50" y1="50" x2="50" y2="90" stroke-linecap="square" stroke-width="0.5" stroke="#ffffff" transform="matrix(-0.036522023057658747,-0.9993328483702394,0.9993328483702394,-0.036522023057658747,1.8594587343709676,101.79274357139491)"></line><line x1="50" y1="50" x2="50" y2="90" stroke-linecap="square" stroke-width="0.5" stroke="#ffffff" transform="matrix(-0.007305964430172421,-0.9999733110857234,0.9999733110857234,-0.007305964430172421,0.36663266722245424,100.36396377579479)"></line><line x1="50" y1="50" x2="50" y2="90" stroke-linecap="square" stroke-width="0.5" stroke="#ffffff" transform="matrix(0.021916333405268214,-0.9997598083190128,0.9997598083190128,0.021916333405268214,-1.0838070862140512,98.89217374568723)"></line><line x1="50" y1="50" x2="50" y2="90" stroke-linecap="square" stroke-width="0.5" stroke="#ffffff" transform="matrix(0.05111991494896698,-0.9986925223989666,0.9986925223989666,0.05111991494896698,-2.4906218673966762,97.37863037249997)"></line><line x1="50" y1="50" x2="50" y2="90" stroke-linecap="square" stroke-width="0.5" stroke="#ffffff" transform="matrix(0.08027984068472135,-0.9967723647752459,0.9967723647752459,0.08027984068472135,-3.852610272998362,95.82462620452623)"></line><line x1="50" y1="50" x2="50" y2="90" stroke-linecap="square" stroke-width="0.5" stroke="#ffffff" transform="matrix(0.10937120837787428,-0.9940009752399459,0.9940009752399459,0.10937120837787428,-5.168609180891011,94.23148834310358)"></line><line x1="50" y1="50" x2="50" y2="90" stroke-linecap="square" stroke-width="0.5" stroke="#ffffff" transform="matrix(0.1383691743415367,-0.9903807205272331,0.9903807205272331,0.1383691743415367,-6.437494743438492,92.60057730928482)"></line><line x1="50" y1="50" x2="50" y2="90" stroke-linecap="square" stroke-width="0.5" stroke="#ffffff" transform="matrix(0.1672489746527978,-0.985914692292182,0.985914692292182,0.1672489746527978,-7.658183347248993,90.93328588196921)"></line><line x1="50" y1="50" x2="50" y2="90" stroke-linecap="square" stroke-width="0.5" stroke="#ffffff" transform="matrix(0.19598594630083102,-0.9806067044705373,0.9806067044705373,0.19598594630083102,-8.829632538568418,89.23103790848532)"></line><line x1="50" y1="50" x2="50" y2="90" stroke-linecap="square" stroke-width="0.5" stroke="#ffffff" transform="matrix(0.22455554824881332,-0.9744612900216585,0.9744612900216585,0.22455554824881332,-9.95084191352359,87.49528708864226)"></line><line x1="50" y1="50" x2="50" y2="90" stroke-linecap="square" stroke-width="0.5" stroke="#ffffff" transform="matrix(0.25293338239168045,-0.9674836970574253,0.9674836970574253,0.25293338239168045,-11.020853972455285,85.72751573328725)"></line><line x1="50" y1="50" x2="50" y2="90" stroke-linecap="square" stroke-width="0.5" stroke="#ffffff" transform="matrix(0.2810952143918285,-0.9596798843604111,0.9596798843604111,0.2810952143918285,-12.038754937611984,83.92923349842913)"></line><line x1="50" y1="50" x2="50" y2="90" stroke-linecap="square" stroke-width="0.5" stroke="#ffffff" transform="matrix(0.30901699437494723,-0.9510565162951536,0.9510565162951536,0.30901699437494723,-13.003675533505046,82.10197609601032)"></line><line x1="50" y1="50" x2="50" y2="90" stroke-linecap="square" stroke-width="0.5" stroke="#ffffff" transform="matrix(0.3366748774683376,-0.9416209571168644,0.9416209571168644,0.3366748774683376,-13.914791729260102,80.24730398242635)"></line><line x1="50" y1="50" x2="50" y2="90" stroke-linecap="square" stroke-width="0.5" stroke="#ffffff" transform="matrix(0.36404524416414646,-0.931381264682443,0.931381264682443,0.36404524416414646,-14.77132544232947,78.36680102591482)"></line><line x1="50" y1="50" x2="50" y2="90" stroke-linecap="square" stroke-width="0.5" stroke="#ffffff" transform="matrix(0.39110472049015554,-0.9203461835691596,0.9203461835691596,0.39110472049015554,-15.572545202965756,76.4620731539502)"></line><line x1="50" y1="50" x2="50" y2="90" stroke-linecap="square" stroke-width="0.5" stroke="#ffffff" transform="matrix(0.41783019797087695,-0.9085251376068897,0.9085251376068897,0.41783019797087695,-16.317766778888327,74.53474698180064)"></line><line x1="50" y1="50" x2="50" y2="90" stroke-linecap="square" stroke-width="0.5" stroke="#ffffff" transform="matrix(0.4441988533619184,-0.8959282218302742,0.8959282218302742,0.4441988533619184,-17.006353759609624,72.58646842341778)"></line><line x1="50" y1="50" x2="50" y2="90" stroke-linecap="square" stroke-width="0.5" stroke="#ffffff" transform="matrix(0.4701881681407676,-0.8825661938576784,0.8825661938576784,0.4701881681407676,-17.637718099922296,70.61890128584554)"></line><line x1="50" y1="50" x2="50" y2="90" stroke-linecap="square" stroke-width="0.5" stroke="#ffffff" transform="matrix(0.4957759477373517,-0.8684504647043093,0.8684504647043093,0.4957759477373517,-18.21132062208305,68.63372584834788)"></line><line x1="50" y1="50" x2="50" y2="90" stroke-linecap="square" stroke-width="0.5" stroke="#ffffff" transform="matrix(0.5209403404879305,-0.8535930890373463,0.8535930890373463,0.5209403404879305,-18.726671476263846,66.6326374274708)"></line><line x1="50" y1="50" x2="50" y2="90" stroke-linecap="square" stroke-width="0.5" stroke="#ffffff" transform="matrix(0.5456598562961672,-0.8380067548813949,0.8380067548813949,0.5456598562961672,-19.18333055887811,64.61734492926138)"></line><line x1="50" y1="50" x2="50" y2="90" stroke-linecap="square" stroke-width="0.5" stroke="#ffffff" transform="matrix(0.5699133849854158,-0.821704772783063,0.821704772783063,0.5699133849854158,-19.580907888423937,62.58956938988236)"></line><line x1="50" y1="50" x2="50" y2="90" stroke-linecap="square" stroke-width="0.5" stroke="#ffffff" transform="matrix(0.5936802143265705,-0.8047010644439072,0.8047010644439072,0.5936802143265705,-19.91906393852389,60.55104250586684)"></line><line x1="50" y1="50" x2="50" y2="90" stroke-linecap="square" stroke-width="0.5" stroke="#ffffff" transform="matrix(0.6169400477260569,-0.7870101508314684,0.7870101508314684,0.6169400477260569,-20.19750992787627,58.503505155270574)"></line><line x1="50" y1="50" x2="50" y2="90" stroke-linecap="square" stroke-width="0.5" stroke="#ffffff" transform="matrix(0.6396730215588913,-0.768647139778532,0.768647139778532,0.6396730215588913,-20.41600806687117,56.448705910982035)"></line><line x1="50" y1="50" x2="50" y2="90" stroke-linecap="square" stroke-width="0.5" stroke="#ffffff" transform="matrix(0.661859722131983,-0.7496277130812163,0.7496277130812163,0.661859722131983,-20.57437176065997,54.38839954746167)"></line><line x1="50" y1="50" x2="50" y2="90" stroke-linecap="square" stroke-width="0.5" stroke="#ffffff" transform="matrix(0.6834812022632002,-0.7299681131069017,0.7299681131069017,0.6834812022632002,-20.67246576850509,52.32434554218507)"></line><line x1="50" y1="50" x2="50" y2="90" stroke-linecap="square" stroke-width="0.5" stroke="#ffffff" transform="matrix(0.7045189974620366,-0.709685128923445,0.709685128923445,0.7045189974620366,-20.71020631927408,50.25830657307042)"></line><line x1="50" y1="50" x2="50" y2="90" stroke-linecap="square" stroke-width="0.5" stroke="#ffffff" transform="matrix(0.7249551416980797,-0.6887960819615027,0.6887960819615027,0.7249551416980797,-20.687561182979124,48.19204701317115)"></line><line x1="50" y1="50" x2="50" y2="90" stroke-linecap="square" stroke-width="0.5" stroke="#ffffff" transform="matrix(0.7447721827437823,-0.6673188112222389,0.6673188112222389,0.7447721827437823,-20.60454969830107,46.12733142392283)"></line><line x1="50" y1="50" x2="50" y2="90" stroke-linecap="square" stroke-width="0.5" stroke="#ffffff" transform="matrix(0.7639531970784592,-0.6452716580430298,0.6452716580430298,0.7639531970784592,-20.461242756074455,44.065923048228534)"></line><line x1="50" y1="50" x2="50" y2="90" stroke-linecap="square" stroke-width="0.5" stroke="#ffffff" transform="matrix(0.7824818043407824,-0.622673450434169,0.622673450434169,0.7824818043407824,-20.257762738747573,42.00958230466934)"></line><line x1="50" y1="50" x2="50" y2="90" stroke-linecap="square" stroke-width="0.5" stroke="#ffffff" transform="matrix(0.8003421813174129,-0.5995434869999718,0.5995434869999718,0.8003421813174129,-19.994283415869234,39.96006528412795)"></line><line x1="50" y1="50" x2="50" y2="90" stroke-linecap="square" stroke-width="0.5" stroke="#ffffff" transform="matrix(0.8175190754558388,-0.575901520457995,0.575901520457995,0.8175190754558388,-19.671029795691695,37.91912225010782)"></line><line x1="50" y1="50" x2="50" y2="90" stroke-linecap="square" stroke-width="0.5" stroke="#ffffff" transform="matrix(0.8339978178898783,-0.5517677407704454,0.5517677407704454,0.8339978178898783,-19.28827793301619,35.88849614402836)"></line><line x1="50" y1="50" x2="50" y2="90" stroke-linecap="square" stroke-width="0.5" stroke="#ffffff" transform="matrix(0.8497643359667186,-0.5271627579021888,0.5271627579021888,0.8497643359667186,-18.846354693445377,33.86992109677351)"></line><line x1="50" y1="50" x2="50" y2="90" stroke-linecap="square" stroke-width="0.5" stroke="#ffffff" transform="matrix(0.8648051652647991,-0.5021075842200787,0.5021075842200787,0.8648051652647991,-18.345637474243887,31.865120947763977)"></line><line x1="50" y1="50" x2="50" y2="90" stroke-linecap="square" stroke-width="0.5" stroke="#ffffff" transform="matrix(0.8791074610922623,-0.4766236165486521,0.4766236165486521,0.8791074610922623,-17.786553882045723,29.875807772819485)"></line><line x1="50" y1="50" x2="50" y2="90" stroke-linecap="square" stroke-width="0.5" stroke="#ffffff" transform="matrix(0.8926590094561782,-0.4507326178974791,0.4507326178974791,0.8926590094561782,-17.169581367682866,27.903680422065047)"></line><line x1="50" y1="50" x2="50" y2="90" stroke-linecap="square" stroke-width="0.5" stroke="#ffffff" transform="matrix(0.9054482374931467,-0.4244566988758148,0.4244566988758148,0.9054482374931467,-16.49524681844808,25.950423069133404)"></line><line x1="50" y1="50" x2="50" y2="90" stroke-linecap="square" stroke-width="0.5" stroke="#ffffff" transform="matrix(0.9174642233523875,-0.3978182988103995,0.3978182988103995,0.9174642233523875,-15.764126108139351,24.0177037729006)"></line><line x1="50" y1="50" x2="50" y2="90" stroke-linecap="square" stroke-width="0.5" stroke="#ffffff" transform="matrix(0.928696705522874,-0.37084016658253216,0.37084016658253216,0.928696705522874,-14.976843605270318,22.10717305298291)"></line><line x1="50" y1="50" x2="50" y2="90" stroke-linecap="square" stroke-width="0.5" stroke="#ffffff" transform="matrix(0.9391360915965425,-0.3435453412007947,0.3435453412007947,0.9391360915965425,-14.13407163986686,20.220462480212607)"></line><line x1="50" y1="50" x2="50" y2="90" stroke-linecap="square" stroke-width="0.5" stroke="#ffffff" transform="matrix(0.9487734664600955,-0.3159571321260115,0.3159571321260115,0.9487734664600955,-13.236529929305355,18.3591832832958)"></line><line x1="50" y1="50" x2="50" y2="90" stroke-linecap="square" stroke-width="0.5" stroke="#ffffff" transform="matrix(0.9576005999084057,-0.2880990993652383,0.2880990993652383,0.9576005999084057,-12.284984963682206,16.52492497284163)"></line><line x1="50" y1="50" x2="50" y2="90" stroke-linecap="square" stroke-width="0.5" stroke="#ffffff" transform="matrix(0.9656099536730137,-0.25999503335179364,0.25999503335179364,0.9656099536730137,-11.280249351240371,14.719253983938998)"></line><line x1="50" y1="50" x2="50" y2="90" stroke-linecap="square" stroke-width="0.5" stroke="#ffffff" transform="matrix(0.9727946878597193,-0.23166893462851507,0.23166893462851507,0.9727946878597193,-10.223181124411717,12.943712338439788)"></line><line x1="50" y1="50" x2="50" y2="90" stroke-linecap="square" stroke-width="0.5" stroke="#ffffff" transform="matrix(0.9791486667897747,-0.2031449933515631,0.2031449933515631,0.9791486667897747,-9.114683007066894,11.199816328089419)"></line><line x1="50" y1="50" x2="50" y2="90" stroke-linecap="square" stroke-width="0.5" stroke="#ffffff" transform="matrix(0.9846664642396792,-0.17444756863232178,0.17444756863232178,0.9846664642396792,-7.955701643600051,9.489055219632135)"></line><line x1="50" y1="50" x2="50" y2="90" stroke-linecap="square" stroke-width="0.5" stroke="#ffffff" transform="matrix(0.9893433680751101,-0.14560116773500492,0.14560116773500492,0.9893433680751101,-6.747226790505756,7.81288998299474)"></line><line x1="50" y1="50" x2="50" y2="90" stroke-linecap="square" stroke-width="0.5" stroke="#ffffff" transform="matrix(0.9931753842750332,-0.11663042514772955,0.11663042514772955,0.9931753842750332,-5.490290471138138,6.172752043634816)"></line><line x1="50" y1="50" x2="50" y2="90" stroke-linecap="square" stroke-width="0.5" stroke="#ffffff" transform="matrix(0.9961592403425467,-0.08756008154496223,0.08756008154496223,0.9961592403425467,-4.185966094375445,4.570042060120784)"></line><line x1="50" y1="50" x2="50" y2="90" stroke-linecap="square" stroke-width="0.5" stroke="#ffffff" transform="matrix(0.998292388099557,-0.05841496265926623,0.05841496265926623,0.998292388099557,-2.83536753794116,3.0061287279854625)"></line><line x1="50" y1="50" x2="50" y2="90" stroke-linecap="square" stroke-width="0.5" stroke="#ffffff" transform="matrix(0.9995730058628927,-0.029219958080419654,0.029219958080419654,0.9995730058628927,-1.4396481971656172,1.482347610876353)"></line></g></svg>